# AST/ASF file generated using VICON BodyLanguage
# -----------------------------------------------
:version 1.10
:name VICON
:units
  mass 1.0
  length 0.45
  angle deg
:documentation
   .ast/.asf automatically generated from VICON data using
   VICON BodyBuilder and BodyLanguage model FoxedUp or BRILLIANT.MOD
:root
   order TX TY TZ RX RY RZ
   axis XYZ
   position 0 0 0  
   orientation 0 0 0 
:bonedata
  begin
     id 1 
     name lhipjoint
     direction 0.716248 -0.617586 0.324924 
     length 2.63557 
     axis 0 0 0  XYZ
  end
  begin
     id 2 
     name lfemur
     direction 0.34202 -0.939693 0  
     length 7.01235  
     axis 0 0 20  XYZ
    dof rx ry rz
    limits (-160.0 20.0)
           (-70.0 70.0)
           (-60.0 70.0)
  end
  begin
     id 3 
     name ltibia
     direction 0.34202 -0.939693 0   
     length 8.14348   
     axis 0 0 20   XYZ
    dof rx
    limits (-10.0 170.0)
  end
  begin
     id 4 
     name lfoot
     direction 0.0982064 -0.26982 0.95789   
     length 1.99077   
     axis -90 7.62852e-016 20   XYZ
    dof rx rz
    limits (-45.0 90.0)
           (-70.0 20.0)
  end
  begin
     id 5 
     name ltoes
     direction 1.53511e-011 -4.21891e-011 1   
     length 0.99735   
     axis -90 7.62852e-016 20   XYZ
    dof rx
    limits (-90.0 20.0)
  end
  begin
     id 6 
     name rhipjoint
     direction -0.687828 -0.642391 0.337975   
     length 2.5338  
     axis 0 0 0  XYZ 
  end
  begin
     id 7 
     name rfemur
     direction -0.34202 -0.939693 0   
     length 6.90199   
     axis 0 0 -20   XYZ
    dof rx ry rz
    limits (-160.0 20.0)
           (-70.0 70.0)
           (-70.0 60.0)
  end
  begin
     id 8 
     name rtibia
     direction -0.34202 -0.939693 0   
     length 8.07725   
     axis 0 0 -20   XYZ
    dof rx
    limits (-10.0 170.0)
 end
 begin
     id 9 
     name rfoot
     direction -0.0912384 -0.250675 0.963762   
     length 2.11621  
     axis -90 -7.62852e-016 -20   XYZ
    dof rx rz
    limits (-45.0 90.0)
           (-20.0 70.0)
  end
  begin
     id 10 
     name rtoes
     direction -1.5359e-011 -4.21894e-011 1   
     length 1.06031   
     axis -90 -7.62852e-016 -20   XYZ
    dof rx
    limits (-90.0 20.0)
  end
  begin
     id 11 
     name lowerback
     direction -0.0403572 0.987953 -0.149396   
     length 2.05637   
     axis 0 0 0   XYZ
    dof rx ry rz
    limits (-20.0 45.0)
           (-30.0 30.0)
           (-30.0 30.0)
  end
  begin
     id 12 
     name upperback
     direction -0.00512151 0.997598 0.0690792   
     length 2.01086   
     axis 0 0 0   XYZ
    dof rx ry rz
    limits (-20.0 45.0)
           (-30.0 30.0)
           (-30.0 30.0)
  end
  begin
     id 13 
     name thorax
     direction 0.0136133 0.989392 0.14463   
     length 2.09035   
     axis 0 0 0   XYZ
    dof rx ry rz
    limits (-20.0 45.0)
           (-30.0 30.0)
           (-30.0 30.0)
  end
  begin
     id 14 
     name lowerneck
     direction 0.0250714 0.992811 0.11704   
     length 1.70806   
     axis 0 0 0   XYZ
    dof rx ry rz
    limits (-20.0 45.0)
           (-30.0 30.0)
           (-30.0 30.0)
  end
  begin
     id 15 
     name upperneck
     direction -0.0519205 0.998394 -0.0226787   
     length 1.6689   
     axis 0 0 0   XYZ
    dof rx ry rz
    limits (-20.0 45.0)
           (-30.0 30.0)
           (-30.0 30.0)
  end
  begin
     id 16
     name head
     direction -0.0201693 0.999547 -0.0223192  
     length 1.83412  
     axis 0 0 0   XYZ
    dof rx ry rz
    limits (-20.0 45.0)
           (-30.0 30.0)
           (-30.0 30.0)
  end
  begin
     id 17 
     name lclavicle
     direction 0.89585 0.444077 -0.0157448  
     length 3.39587  
     axis 0 0 0   XYZ
    dof ry rz
    limits (-20.0 10.0)
           (0.0 20.0)
  end
  begin
     id 18 
     name lhumerus
     direction 1 -4.48956e-011 1.99132e-028   
     length 5.79199   
     axis 180 -30 -90   XYZ
    dof rx ry rz
    limits (-60.0 90.0)
           (-90.0 90.0)
           (-90.0 90.0)
  end
  begin
     id 19
     name lradius
     direction 1 -4.48974e-011 8.72912e-028   
     length 3.49908   
     axis 180 -30 -90   XYZ
    dof rx
    limits (-10.0 170.0)
  end
  begin
     id 20
     name lwrist
     direction 1 -4.48994e-011 4.76442e-027   
     length 1.74954   
     axis -3.27502e-015 90 90   XYZ
    dof ry
    limits (-180.0 0.0)
 end
  begin
     id 21 
     name lhand
     direction 1 -4.48945e-011 9.531e-027   
     length 0.593861   
     axis -6.08098e-015 90 90   XYZ
    dof rx rz
    limits (-90.0 90.0)
           (-45.0 45.0)
  end
  begin
     id 22 
     name lfingers
     direction 1 -4.48945e-011 1.9062e-026   
     length 0.478786   
     axis -1.21619e-014 90 90   XYZ
    dof rx
    limits (0.0 90.0)
  end
  begin
     id 23
     name lthumb
     direction 0.707107 -6.34904e-011 0.707107   
     length 0.687444   
     axis -90 45 -9.86923e-015   XYZ
    dof rx rz
    limits (-45.0 45.0)
           (-45.0 45.0)
  end
  begin
     id 24 
     name rclavicle
     direction -0.940466 0.338394 0.0318182   
     length 3.51226  
     axis 0 0 0   XYZ 
    dof ry rz
    limits (-10.0 20.0)
           (-20.0 0.0)
  end
  begin
     id 25 
     name rhumerus
     direction -1 -4.48976e-011 2.0905e-027  
     length 5.73799   
     axis 180 30 90   XYZ
    dof rx ry rz
    limits (-90.0 60.0)
           (-90.0 90.0)
           (-90.0 90.0)
  end
  begin
     id 26 
     name rradius
     direction -1 -4.48968e-011 -9.39692e-029   
     length 3.57916   
     axis 180 30 90   XYZ
    dof rx
    limits (-10.0 170.0)
  end
  begin
     id 27 
     name rwrist
     direction -1 -4.48959e-011 4.7652e-027   
     length 1.78958   
     axis -3.27502e-015 -90 -90   XYZ
    dof ry
    limits (-180.0 0.0)
  end
  begin
     id 28
     name rhand
     direction -1 -4.49042e-011 9.5267e-027   
     length 0.615577   
     axis -6.08098e-015 -90 -90   XYZ
    dof rx rz
    limits (-90.0 90.0)
           (-45.0 45.0)
  end
  begin
     id 29
     name rfingers
     direction -1 -4.48935e-011 1.90629e-026   
     length 0.496294   
     axis -1.21619e-014 -90 -90   XYZ
    dof rx
    limits (0.0 90.0)
  end
  begin
     id 30
     name rthumb
     direction -0.707107 -6.34977e-011 0.707107   
     length 0.712582   
     axis -90 -45 9.86923e-015   XYZ
    dof rx rz
    limits (-45.0 45.0)
           (-45.0 45.0)
  end
:hierarchy
  begin
    root lhipjoint rhipjoint lowerback
    lhipjoint lfemur
    lfemur ltibia
    ltibia lfoot
    lfoot ltoes
    rhipjoint rfemur
    rfemur rtibia
    rtibia rfoot
    rfoot rtoes
    lowerback upperback
    upperback thorax
    thorax lowerneck lclavicle rclavicle
    lowerneck upperneck
    upperneck head
    lclavicle lhumerus
    lhumerus lradius
    lradius lwrist
    lwrist lhand lthumb
    lhand lfingers
    rclavicle rhumerus
    rhumerus rradius
    rradius rwrist
    rwrist rhand rthumb
    rhand rfingers
  end

#!OML:ASF H:\Terrain\Patient Classification 1\PaulMetrics\March17Take5\PaulMetrics.ASF
:FULLY-SPECIFIED
:DEGREES
748
root 14.9162 17.5622 -15.3292 -1.72827 -59.9001 10.6373
lowerback -0.0740113 0.513185 -8.1493
upperback -3.49662 0.393763 -2.30992
thorax -3.64093 0.379175 2.15367
lowerneck -6.23474 3.24748 3.4025
upperneck 0.380345 4.24195 -8.07227
head 1.48919 1.96209 -3.06646
rclavicle -5.83278e-014 -5.20816e-014
rhumerus -40.9733 24.7085 -93.7319
rradius 68.9965
rwrist -25.6468
rhand -18.2367 -32.5399
rfingers 7.12502
rthumb 8.04193 -62.3669
lclavicle -5.83278e-014 -5.20816e-014
lhumerus -29.4718 15.3752 73.258
lradius 26.2434
lwrist 11.9678
lhand -10.8329 -18.1382
lfingers 7.12502
lthumb 15.1815 11.2848
rfemur -8.74096 13.4775 11.3967
rtibia 18.4336
rfoot -18.2421 -27.6267
rtoes -7.39835
lfemur -13.1401 -8.37685 -17.004
ltibia 17.8881
lfoot -15.0669 17.6703
ltoes -7.66369
749
root 14.9215 17.5615 -15.3268 -1.08826 -59.8417 9.98296
lowerback -0.0938226 0.501615 -7.77122
upperback -3.4449 0.397209 -2.23057
thorax -3.56907 0.36887 2.02715
lowerneck -6.47214 3.23368 3.29287
upperneck 0.531667 4.23498 -7.9801
head 1.57421 1.9525 -3.0125
rclavicle 5.12678e-014 -8.74653e-015
rhumerus -41.0857 24.3136 -94.0454
rradius 68.0222
rwrist -25.6969
rhand -18.3605 -32.565
rfingers 7.12502
rthumb 7.92239 -62.3965
lclavicle 5.12678e-014 -8.74653e-015
lhumerus -29.5346 16.1343 72.6795
lradius 25.1078
lwrist 11.1748
lhand -12.5013 -18.7524
lfingers 7.12502
lthumb 13.5738 10.7852
rfemur -8.79 13.5625 11.7195
rtibia 18.3696
rfoot -18.449 -27.5745
rtoes -5.88675
lfemur -13.2831 -8.23212 -16.6677
ltibia 17.878
lfoot -14.9116 17.6471
ltoes -7.72171
750
root 14.927 17.5732 -15.3263 -0.525415 -59.8559 9.52276
lowerback -0.0955214 0.523367 -7.48821
upperback -3.51381 0.429163 -2.19756
thorax -3.63826 0.380836 1.90267
lowerneck -6.54969 3.18146 3.36388
upperneck 0.65815 4.16805 -8.02534
head 1.62898 1.91505 -3.04368
rclavicle 4.73232e-014 3.89618e-014
rhumerus -41.5561 23.8076 -94.4011
rradius 67.3233
rwrist -25.574
rhand -18.8054 -33.8548
rfingers 7.12502
rthumb 7.49298 -63.7021
lclavicle 4.73232e-014 3.89618e-014
lhumerus -29.746 16.8226 71.8798
lradius 24.2154
lwrist 11.2984
lhand -15.5294 -20.5686
lfingers 7.12502
lthumb 10.6541 9.14126
rfemur -8.87487 13.842 11.8689
rtibia 18.1452
rfoot -18.9829 -27.3257
rtoes -2.37776
lfemur -13.6441 -8.1895 -16.4033
ltibia 18.159
lfoot -14.8633 17.5097
ltoes -7.70688
751
root 14.9325 17.6059 -15.3277 -0.224269 -59.949 9.25346
lowerback 0.0829086 0.517698 -7.35884
upperback -3.61271 0.404606 -2.10236
thorax -3.83936 0.375044 1.92762
lowerneck -6.52494 3.2076 3.31371
upperneck 0.746343 4.2145 -8.09354
head 1.65708 1.93536 -3.05614
rclavicle 9.78238e-014 2.8625e-014
rhumerus -42.0758 23.4013 -94.6941
rradius 66.6851
rwrist -25.2279
rhand -19.0055 -34.6218
rfingers 7.12502
rthumb 7.29989 -64.4758
lclavicle 9.78238e-014 2.8625e-014
lhumerus -30.3094 17.9899 71.0864
lradius 23.54
lwrist 11.0248
lhand -13.9183 -18.4331
lfingers 7.12502
lthumb 12.2079 11.1906
rfemur -8.71423 14.8714 11.7856
rtibia 17.9162
rfoot -22.3823 -25.8968
rtoes 10.9138
lfemur -13.8852 -8.03719 -16.2445
ltibia 18.4651
lfoot -14.6029 17.3451
ltoes -10.0748
752
root 14.9398 17.5796 -15.3247 0.00105104 -59.9805 8.99523
lowerback 0.165839 0.464735 -7.28479
upperback -3.59185 0.335763 -1.97361
thorax -3.85786 0.342078 2.02197
lowerneck -6.62169 3.29398 3.25815
upperneck 0.807898 4.33851 -8.16994
head 1.70343 1.99155 -3.06601
rclavicle -8.03214e-015 3.26007e-014
rhumerus -42.1901 23.026 -94.8816
rradius 65.7615
rwrist -24.7242
rhand -19.0374 -33.281
rfingers 7.12502
rthumb 7.26908 -63.1362
lclavicle -8.03214e-015 3.26007e-014
lhumerus -30.7716 19.6048 70.2756
lradius 22.7907
lwrist 10.1882
lhand -14.2606 -17.7914
lfingers 7.12502
lthumb 11.8778 11.8517
rfemur -8.86411 13.5571 12.1414
rtibia 17.7888
rfoot -18.2571 -27.2713
rtoes -3.82203
lfemur -14.0279 -7.74486 -16.1049
ltibia 18.6633
lfoot -14.7211 17.1994
ltoes -9.66075
753
root 14.9372 17.5669 -15.3262 0.207824 -59.9648 8.95122
lowerback -0.0676665 0.400145 -7.33672
upperback -3.55452 0.274302 -1.94045
thorax -3.68165 0.307555 2.08942
lowerneck -6.85924 3.33559 3.2711
upperneck 0.952083 4.39961 -8.1865
head 1.79857 2.01391 -3.06975
rclavicle 4.92303e-014 -1.43125e-014
rhumerus -42.0954 22.5398 -95.1134
rradius 64.7054
rwrist -24.1846
rhand -18.8865 -31.7263
rfingers 7.12502
rthumb 7.4147 -61.5763
lclavicle 4.92303e-014 -1.43125e-014
lhumerus -31.0094 20.7549 69.4315
lradius 21.9785
lwrist 9.66233
lhand -14.9886 -18.4464
lfingers 7.12502
lthumb 11.1758 11.2359
rfemur -9.12247 13.2313 12.197
rtibia 17.8204
rfoot -16.8802 -27.8955
rtoes -9.61253
lfemur -14.2077 -7.71111 -16.036
ltibia 18.6617
lfoot -15.2147 17.1199
ltoes -6.34845
754
root 14.9372 17.575 -15.3304 0.507497 -59.9926 8.76359
lowerback -0.130979 0.362509 -7.27303
upperback -3.59848 0.229218 -1.91602
thorax -3.68685 0.284549 2.08086
lowerneck -7.0435 3.36309 3.22965
upperneck 1.22118 4.45245 -8.09145
head 1.91913 2.03397 -3.02607
rclavicle -3.03519e-014 -9.54166e-015
rhumerus -42.236 22.0866 -95.4151
rradius 63.917
rwrist -23.7042
rhand -18.4959 -31.2683
rfingers 7.12502
rthumb 7.7917 -61.1047
lclavicle -3.03519e-014 -9.54166e-015
lhumerus -31.4182 21.5745 68.546
lradius 21.2389
lwrist 9.08348
lhand -15.3235 -19.222
lfingers 7.12502
lthumb 10.8528 10.4776
rfemur -9.19329 13.7139 12.1924
rtibia 17.7117
rfoot -18.3136 -27.6451
rtoes -4.87532
lfemur -14.4916 -7.83249 -15.8796
ltibia 18.9313
lfoot -15.4143 17.0995
ltoes -5.74913
755
root 14.9424 17.5919 -15.3324 0.183016 -60.0227 9.15253
lowerback 0.0118101 0.348824 -7.42173
upperback -3.6305 0.188341 -1.98524
thorax -3.79976 0.27109 2.09196
lowerneck -6.97978 3.41757 3.36763
upperneck 1.25121 4.52 -8.16825
head 1.92906 2.06785 -3.07607
rclavicle 2.25248e-014 1.27222e-014
rhumerus -42.5819 21.6342 -95.651
rradius 63.3667
rwrist -23.2736
rhand -17.9303 -31.4133
rfingers 7.12502
rthumb 8.33761 -61.2288
lclavicle 2.25248e-014 1.27222e-014
lhumerus -31.8811 22.296 67.7365
lradius 20.644
lwrist 8.64958
lhand -14.8751 -18.8673
lfingers 7.12502
lthumb 11.2852 10.8091
rfemur -9.21762 13.9105 11.892
rtibia 17.7676
rfoot -19.4884 -27.0441
rtoes -0.263511
lfemur -14.5543 -7.75388 -16.0975
ltibia 18.9625
lfoot -14.9714 17.164
ltoes -8.27494
756
root 14.9441 17.5881 -15.3314 0.0484659 -60.0146 9.36697
lowerback -0.0543406 0.336693 -7.47547
upperback -3.56927 0.178756 -2.0493
thorax -3.69768 0.26208 2.05665
lowerneck -6.8843 3.43959 3.79046
upperneck 1.07421 4.51719 -8.54972
head 1.88128 2.06511 -3.28867
rclavicle -2.73702e-014 -1.19271e-015
rhumerus -42.7326 21.0909 -95.7552
rradius 62.7979
rwrist -22.9395
rhand -17.5061 -31.5491
rfingers 7.12502
rthumb 8.74693 -61.3478
lclavicle -2.73702e-014 -1.19271e-015
lhumerus -32.0989 22.6116 67.187
lradius 20.2444
lwrist 9.00493
lhand -14.6527 -17.5401
lfingers 7.12502
lthumb 11.4997 12.1244
rfemur -9.43355 13.4168 11.825
rtibia 18.029
rfoot -18.6147 -27.1334
rtoes -3.85568
lfemur -14.5152 -7.48129 -16.2369
ltibia 18.7276
lfoot -14.5836 17.0196
ltoes -10.1796
757
root 14.9447 17.5838 -15.3317 0.307051 -60.0519 9.09159
lowerback -0.0592051 0.372982 -7.32116
upperback -3.51624 0.234452 -2.06854
thorax -3.64193 0.282284 1.94975
lowerneck -7.07329 3.40116 4.03352
upperneck 1.20587 4.45383 -8.62403
head 1.96573 2.02755 -3.36281
rclavicle 2.02947e-014 -8.74653e-015
rhumerus -42.7348 20.3982 -95.8725
rradius 62.2079
rwrist -22.7057
rhand -17.1744 -31.488
rfingers 7.12502
rthumb 9.06707 -61.2731
lclavicle 2.02947e-014 -8.74653e-015
lhumerus -32.2158 22.6118 66.738
lradius 19.8767
lwrist 9.32092
lhand -14.8189 -16.7699
lfingers 7.12502
lthumb 11.3394 12.9035
rfemur -9.64263 13.2021 12.0442
rtibia 18.2791
rfoot -17.4758 -27.4316
rtoes -7.79653
lfemur -14.3901 -7.24861 -16.0977
ltibia 18.4503
lfoot -14.3682 16.9044
ltoes -11.09
758
root 14.9462 17.5949 -15.3325 0.0275759 -60.2212 9.32009
lowerback 0.127755 0.495452 -7.36273
upperback -3.51525 0.375679 -2.14542
thorax -3.75975 0.35573 1.8869
lowerneck -7.31239 3.33811 3.70136
upperneck 1.51006 4.39454 -8.0664
head 2.07456 2.00065 -3.10804
rclavicle -1.15792e-014 1.15295e-014
rhumerus -42.8395 19.7523 -95.9818
rradius 61.6278
rwrist -22.6
rhand -16.9383 -31.41
rfingers 7.12502
rthumb 9.29486 -61.1851
lclavicle -1.15792e-014 1.15295e-014
lhumerus -32.4649 22.7251 66.245
lradius 19.5457
lwrist 9.00207
lhand -14.4675 -16.4175
lfingers 7.12502
lthumb 11.6783 13.237
rfemur -9.58872 13.6711 11.8643
rtibia 18.225
rfoot -17.945 -27.2216
rtoes -4.66752
lfemur -14.334 -7.25213 -16.2129
ltibia 18.6149
lfoot -14.7511 16.9002
ltoes -8.95784
759
root 14.9463 17.607 -15.3335 0.147582 -60.3944 9.17564
lowerback 0.183687 0.543931 -7.25584
upperback -3.51304 0.440972 -2.08346
thorax -3.79337 0.387621 1.88887
lowerneck -7.41385 3.37622 3.58681
upperneck 1.65499 4.45728 -7.90309
head 2.13546 2.03115 -3.0268
rclavicle -5.95733e-014 1.70955e-014
rhumerus -42.997 19.4968 -96.0461
rradius 61.1131
rwrist -22.5903
rhand -17.1738 -32.332
rfingers 7.12502
rthumb 9.06765 -62.1171
lclavicle -5.95733e-014 1.70955e-014
lhumerus -32.88 23.5295 65.4994
lradius 19.2578
lwrist 8.22657
lhand -14.0834 -16.15
lfingers 7.12502
lthumb 12.0487 13.4831
rfemur -9.40108 14.7051 11.7315
rtibia 18.0694
rfoot -21.1987 -25.9709
rtoes 7.8797
lfemur -14.4105 -7.25628 -16.115
ltibia 18.8664
lfoot -15.0978 16.8644
ltoes -6.7559
